<svg width="679" height="514" viewBox="0 0 679 514" fill="none" xmlns="http://www.w3.org/2000/svg">
<g clip-path="url(#clip0_140_37)">
<path d="M312.196 83.2483C440.485 27.4919 578.386 99.9969 631.3 143.219C665.316 160.508 733.673 197.03 734.969 204.81C736.589 214.535 675.035 365.272 631.3 400.93C587.565 436.589 561.648 413.897 500.095 413.897C438.542 413.897 470.938 423.622 389.947 465.763C308.956 507.905 281.419 488.455 239.304 457.659C197.189 426.864 108.098 434.968 61.1236 413.897C14.1488 392.826 25.4876 331.235 61.1236 303.681C96.7596 276.127 150.214 263.16 216.626 243.71C283.039 224.26 151.833 152.944 312.196 83.2483Z" fill="#FFDEA9"/>
<g clip-path="url(#clip1_140_37)">
<path d="M680.001 60.8197V389.846C648.909 403.799 616.559 414.763 583.387 422.59C534.652 436.74 480.58 419.773 412.278 403.938C343.975 388.103 275.681 446.171 212.648 459.189C149.614 472.208 80.9761 411.994 83.7955 367.339C86.6149 322.683 12.6818 299.06 33.802 243.809C54.9221 188.558 144.001 128.025 275.681 125.56C392.039 123.398 562.082 94.6613 680.001 60.8197Z" fill="#ADE2E4"/>
<path d="M246.865 282.219C246.414 282.221 245.971 282.103 245.581 281.875L151.048 227.387C150.658 227.161 150.334 226.836 150.109 226.445C149.884 226.055 149.766 225.612 149.766 225.161C149.766 224.71 149.884 224.268 150.109 223.877C150.334 223.487 150.658 223.162 151.048 222.936L211.816 187.887C212.404 187.582 213.088 187.515 213.724 187.701C214.36 187.886 214.9 188.31 215.232 188.883C215.564 189.456 215.662 190.135 215.505 190.779C215.349 191.422 214.95 191.981 214.392 192.338L157.484 225.165L248.166 277.424C248.653 277.709 249.033 278.145 249.248 278.667C249.462 279.188 249.5 279.766 249.354 280.311C249.208 280.855 248.887 281.337 248.44 281.682C247.994 282.027 247.446 282.215 246.882 282.219H246.865Z" fill="#F2BD46"/>
<path d="M233.356 290.015C232.905 290.015 232.461 289.893 232.073 289.663L124.039 227.345C123.648 227.119 123.325 226.794 123.099 226.403C122.874 226.013 122.756 225.57 122.756 225.119C122.756 224.669 122.874 224.226 123.099 223.835C123.325 223.445 123.648 223.12 124.039 222.894L198.316 180.049C198.906 179.733 199.596 179.659 200.241 179.843C200.885 180.026 201.432 180.454 201.766 181.034C202.1 181.614 202.194 182.301 202.03 182.95C201.865 183.599 201.454 184.158 200.883 184.509L130.474 225.123L234.649 285.212C235.141 285.495 235.525 285.933 235.742 286.457C235.96 286.981 235.998 287.562 235.85 288.11C235.703 288.657 235.378 289.141 234.927 289.486C234.476 289.83 233.924 290.016 233.356 290.015V290.015Z" fill="#F2BD46"/>
<g opacity="0.2">
<g opacity="0.2">
<path opacity="0.2" d="M162.571 284.373L127.698 304.492L92.8164 284.373L127.698 264.255L162.571 284.373Z" fill="black"/>
</g>
</g>
<path d="M127.697 244.446C130.357 244.446 132.514 247.983 132.514 252.351V280.777C132.514 285.145 130.357 285.329 127.697 285.329C125.037 285.329 122.881 285.145 122.881 280.777V252.351C122.881 247.983 125.037 244.446 127.697 244.446Z" fill="url(#paint0_linear_140_37)"/>
<path d="M155.144 259.393L127.698 274.012L100.242 259.393L127.698 215.517L155.144 259.393Z" fill="#184C16"/>
<path d="M150.95 244.765L127.699 258.177L104.447 244.765L127.699 204.527L150.95 244.765Z" fill="#2A8226"/>
<path d="M147.996 229.348L127.698 238.41L107.4 229.348L127.698 202.163L147.996 229.348Z" fill="#32992C"/>
<path d="M127.697 202.163V238.41L147.995 229.348L127.697 202.163Z" fill="#2A8226"/>
<path d="M127.697 258.177V238.41L143.195 231.352L150.949 244.765L127.697 258.177Z" fill="#20661E"/>
<path d="M127.697 274.012V258.177L147.307 246.869L155.144 259.393L127.697 274.012Z" fill="#10330F"/>
<path d="M210.551 219.054L149.783 184.006V129.475L210.551 164.532V219.054Z" fill="#E8B86B"/>
<path d="M278.073 125.577L210.551 164.532V219.054L278.073 180.108V125.577Z" fill="#CE994A"/>
<path d="M149.783 129.475L217.306 90.5284L278.073 125.577L210.551 164.532L149.783 129.475Z" fill="#FFD891"/>
<path d="M217.304 106.104V98.3162L163.283 129.475L170.038 133.373L217.304 106.104Z" fill="#CE994A"/>
<path d="M264.563 125.577L257.816 129.475L217.305 106.104V98.3162L264.563 125.577Z" fill="#E8B86B"/>
<path d="M271.318 184.006V152.847L257.816 160.634V191.793L271.318 184.006Z" fill="#CBF1F0"/>
<path d="M251.062 180.108V163.987L217.305 184.006V199.581L251.062 180.108Z" fill="#CBF1F0"/>
<path d="M216.936 200.218V183.796L251.431 163.342V180.317L216.936 200.218ZM217.666 184.215V198.944L250.684 179.898V164.633L217.666 184.215Z" fill="#2E3C40"/>
<path d="M210.551 172.32V180.107L224.052 187.895V184.006L210.551 172.32Z" fill="#2E3C40"/>
<path d="M278.073 133.373L210.551 172.32L224.052 184.006L291.574 145.05L278.073 133.373Z" fill="#EE6A51"/>
<path d="M224.051 187.895V184.006L291.573 145.051V148.949L224.051 187.895Z" fill="#ED4F3A"/>
<path d="M210.551 172.32L149.783 137.263V129.475L203.796 160.634V152.846L210.551 156.736V172.32Z" fill="#E8B86B"/>
<path d="M278.073 133.373V117.789L210.551 156.736V172.32L278.073 133.373Z" fill="#CE994A"/>
<path d="M271.317 113.891L203.795 152.847L210.55 156.736L278.072 117.79L271.317 113.891Z" fill="#FFD891"/>
<g opacity="0.2">
<g opacity="0.2">
<path opacity="0.2" d="M500.862 258.705C500.757 259.776 500.397 260.806 499.814 261.71C499.23 262.614 498.438 263.366 497.505 263.903L494.249 265.78L489.458 268.547L247.688 407.995C244.637 409.758 241.174 410.687 237.649 410.687C234.123 410.687 230.66 409.758 227.609 407.995L122.067 347.111L116.084 343.657L112.593 341.645C111.581 341.063 110.74 340.225 110.155 339.214C109.57 338.204 109.262 337.057 109.262 335.89C109.262 334.723 109.57 333.577 110.155 332.566C110.74 331.556 111.581 330.717 112.593 330.135L362.561 185.95C365.641 184.171 369.136 183.234 372.693 183.234C376.251 183.234 379.746 184.171 382.825 185.95L497.48 252.083C498.627 252.739 499.558 253.714 500.159 254.891C500.759 256.067 501.003 257.392 500.862 258.705V258.705Z" fill="black"/>
</g>
</g>
<path d="M372.606 212.365C372.038 212.366 371.485 212.18 371.034 211.835C370.583 211.491 370.259 211.007 370.112 210.459C369.964 209.911 370.002 209.33 370.22 208.806C370.437 208.282 370.821 207.844 371.313 207.561L444.315 165.463V26.7349C444.295 26.3851 444.347 26.035 444.467 25.7059C444.587 25.3768 444.773 25.0757 445.014 24.821C445.255 24.5663 445.545 24.3634 445.867 24.2247C446.189 24.0861 446.536 24.0145 446.887 24.0145C447.238 24.0145 447.585 24.0861 447.907 24.2247C448.229 24.3634 448.519 24.5663 448.76 24.821C449 25.0757 449.187 25.3768 449.307 25.7059C449.427 26.035 449.479 26.3851 449.459 26.7349V168.405L373.94 211.996C373.537 212.238 373.076 212.366 372.606 212.365V212.365Z" fill="#F2BD46"/>
<path d="M386.107 220.152C385.542 220.15 384.993 219.963 384.545 219.619C384.097 219.275 383.775 218.793 383.628 218.248C383.481 217.703 383.517 217.124 383.732 216.602C383.946 216.08 384.327 215.642 384.815 215.357L457.816 173.25V34.5141C457.818 33.8331 458.091 33.1806 458.574 32.6998C459.056 32.219 459.71 31.949 460.392 31.949C460.73 31.9479 461.066 32.0134 461.379 32.1417C461.692 32.27 461.976 32.4586 462.216 32.6968C462.456 32.935 462.647 33.2181 462.777 33.5299C462.908 33.8417 462.976 34.1762 462.977 34.5141V176.226L387.416 219.817C387.018 220.046 386.566 220.162 386.107 220.152V220.152Z" fill="#F2BD46"/>
<path d="M399.608 227.94C399.04 227.943 398.487 227.758 398.035 227.414C397.584 227.07 397.259 226.586 397.113 226.038C396.966 225.49 397.005 224.908 397.224 224.385C397.443 223.862 397.83 223.425 398.324 223.145L471.326 181.046V42.3102C471.306 41.9604 471.357 41.6103 471.477 41.2812C471.598 40.9521 471.784 40.651 472.025 40.3963C472.265 40.1416 472.556 39.9387 472.878 39.8C473.2 39.6614 473.547 39.5898 473.897 39.5898C474.248 39.5898 474.595 39.6614 474.917 39.8C475.239 39.9387 475.529 40.1416 475.77 40.3963C476.011 40.651 476.197 40.9521 476.317 41.2812C476.438 41.6103 476.489 41.9604 476.469 42.3102V183.98L400.95 227.571C400.546 227.818 400.081 227.946 399.608 227.94V227.94Z" fill="#F2BD46"/>
<path d="M471.736 334.578C471.285 334.581 470.841 334.462 470.452 334.235L315.152 244.655C314.842 244.495 314.569 244.274 314.348 244.006C314.127 243.737 313.963 243.426 313.865 243.092C313.767 242.758 313.739 242.408 313.78 242.063C313.822 241.717 313.933 241.384 314.108 241.083C314.282 240.782 314.515 240.519 314.794 240.311C315.073 240.102 315.391 239.952 315.73 239.87C316.068 239.788 316.419 239.775 316.763 239.833C317.106 239.89 317.434 240.017 317.728 240.204L473.045 329.783C473.533 330.068 473.913 330.506 474.128 331.028C474.342 331.55 474.379 332.129 474.232 332.674C474.085 333.219 473.763 333.701 473.315 334.045C472.867 334.389 472.318 334.576 471.753 334.578H471.736Z" fill="#F2BD46"/>
<path d="M458.235 342.416C457.781 342.414 457.335 342.293 456.943 342.064L301.651 252.443C301.06 252.103 300.628 251.542 300.451 250.884C300.274 250.226 300.366 249.525 300.707 248.935C301.047 248.345 301.608 247.914 302.267 247.737C302.926 247.56 303.627 247.652 304.218 247.992L459.519 337.571C460.01 337.854 460.394 338.291 460.612 338.814C460.829 339.337 460.868 339.917 460.722 340.465C460.575 341.012 460.252 341.496 459.803 341.841C459.353 342.186 458.802 342.374 458.235 342.374V342.416Z" fill="#F2BD46"/>
<path d="M444.726 350.162C444.275 350.164 443.832 350.046 443.442 349.818L288.142 260.264C287.833 260.104 287.559 259.883 287.338 259.614C287.117 259.346 286.953 259.035 286.855 258.701C286.758 258.367 286.729 258.017 286.771 257.672C286.812 257.326 286.924 256.993 287.098 256.692C287.272 256.391 287.506 256.128 287.784 255.92C288.063 255.711 288.381 255.561 288.72 255.479C289.058 255.397 289.41 255.384 289.753 255.442C290.096 255.499 290.425 255.625 290.718 255.813L446.018 345.359C446.51 345.642 446.895 346.079 447.112 346.604C447.329 347.128 447.367 347.709 447.22 348.256C447.073 348.804 446.748 349.288 446.297 349.633C445.846 349.977 445.294 350.163 444.726 350.162Z" fill="#F2BD46"/>
<path d="M500.861 227.571C500.757 228.643 500.399 229.675 499.815 230.581C499.231 231.486 498.439 232.239 497.505 232.777L494.24 234.655L489.458 237.421L247.679 376.845C244.629 378.607 241.168 379.535 237.644 379.535C234.12 379.535 230.659 378.607 227.608 376.845L122.066 315.952L116.083 312.506L112.584 310.494C111.572 309.911 110.731 309.072 110.146 308.061C109.562 307.05 109.254 305.903 109.254 304.735C109.254 303.568 109.562 302.421 110.146 301.41C110.731 300.399 111.572 299.559 112.584 298.976L362.561 154.791C365.64 153.012 369.135 152.075 372.693 152.075C376.25 152.075 379.745 153.012 382.825 154.791L497.479 220.924C498.629 221.583 499.562 222.563 500.162 223.744C500.763 224.924 501.006 226.255 500.861 227.571Z" fill="#282828"/>
<path d="M237.655 367.062L129.117 304.451C128.491 304.08 127.972 303.552 127.612 302.92C127.252 302.288 127.062 301.574 127.062 300.846C127.062 300.119 127.252 299.404 127.612 298.772C127.972 298.14 128.491 297.613 129.117 297.242L359.165 164.533C361.225 163.346 363.562 162.722 365.94 162.722C368.319 162.722 370.655 163.346 372.716 164.533L480.834 226.901C481.506 227.29 482.065 227.849 482.453 228.521C482.841 229.193 483.045 229.956 483.045 230.732C483.045 231.508 482.841 232.271 482.453 232.943C482.065 233.616 481.506 234.174 480.834 234.563L251.147 367.062C249.096 368.245 246.769 368.867 244.401 368.867C242.033 368.867 239.706 368.245 237.655 367.062V367.062Z" fill="#FCE7AC"/>
<path d="M244.399 368.948C242.016 368.951 239.675 368.326 237.611 367.137L129.065 304.526C128.417 304.153 127.878 303.616 127.503 302.97C127.129 302.323 126.932 301.589 126.932 300.842C126.932 300.094 127.129 299.36 127.503 298.713C127.878 298.067 128.417 297.53 129.065 297.157L359.121 164.457C361.194 163.262 363.545 162.633 365.939 162.633C368.332 162.633 370.683 163.262 372.756 164.457L480.883 226.825C481.569 227.222 482.139 227.792 482.535 228.479C482.931 229.165 483.14 229.943 483.14 230.736C483.14 231.528 482.931 232.306 482.535 232.993C482.139 233.679 481.569 234.249 480.883 234.646L251.187 367.137C249.123 368.326 246.782 368.951 244.399 368.948V368.948ZM237.686 366.978C239.727 368.155 242.042 368.775 244.399 368.775C246.756 368.775 249.071 368.155 251.112 366.978L480.807 234.529C481.466 234.148 482.012 233.601 482.392 232.943C482.773 232.284 482.973 231.538 482.973 230.778C482.973 230.018 482.773 229.271 482.392 228.612C482.012 227.954 481.466 227.407 480.807 227.026L372.664 164.616C370.623 163.439 368.308 162.819 365.951 162.819C363.594 162.819 361.279 163.439 359.238 164.616L129.157 297.317C128.537 297.673 128.021 298.186 127.663 298.805C127.304 299.424 127.115 300.126 127.115 300.842C127.115 301.557 127.304 302.259 127.663 302.878C128.021 303.497 128.537 304.01 129.157 304.366L237.686 366.978Z" fill="black"/>
<path d="M352.341 261.899L392.895 285.296L380.585 292.387L341.231 269.695L272.517 309.329L311.871 332.03L293.369 342.701L254.015 320.001L253.663 319.808L204.701 348.05L187.248 337.982L325.339 258.336L260.946 221.192L271.359 215.181L338.831 254.111L433.415 199.556L446.924 207.343L352.341 261.899Z" fill="#ECFBF9"/>
<path d="M325.365 258.336L187.274 337.973L129.141 304.442C128.517 304.07 128 303.543 127.641 302.912C127.282 302.281 127.094 301.567 127.094 300.842C127.094 300.116 127.282 299.402 127.641 298.771C128 298.14 128.517 297.613 129.141 297.241L260.972 221.192L325.365 258.336Z" fill="#FFDEA9"/>
<path d="M433.415 199.556L338.831 254.111L271.359 215.19L359.163 164.541C361.219 163.347 363.556 162.718 365.934 162.718C368.313 162.718 370.649 163.347 372.706 164.541L433.415 199.556Z" fill="#92CCD3"/>
<path d="M380.585 292.387L311.871 332.03L272.518 309.329L341.231 269.695L380.585 292.387Z" fill="#FFDEA9"/>
<path d="M480.832 234.562L392.903 285.295L352.341 261.941L446.924 207.385L480.832 226.942C481.495 227.334 482.044 227.891 482.426 228.559C482.807 229.227 483.008 229.983 483.008 230.752C483.008 231.522 482.807 232.277 482.426 232.946C482.044 233.614 481.495 234.171 480.832 234.562Z" fill="#FFDEA9"/>
<path d="M293.361 342.701L251.146 367.062C249.094 368.244 246.768 368.866 244.399 368.866C242.031 368.866 239.704 368.244 237.653 367.062L205.037 348.284L254.041 320L293.361 342.701Z" fill="#92CCD3"/>
<path d="M500.862 227.571V242.442C500.858 243.635 500.539 244.805 499.938 245.835C499.337 246.865 498.475 247.719 497.439 248.31L247.647 392.411C244.597 394.174 241.135 395.102 237.612 395.102C234.088 395.102 230.626 394.174 227.576 392.411L112.544 326.053C111.525 325.482 110.676 324.649 110.086 323.641C109.496 322.633 109.186 321.487 109.188 320.319V304.735C109.191 305.903 109.503 307.049 110.092 308.058C110.681 309.066 111.527 309.901 112.544 310.478L116.043 312.489L122.026 315.935L227.61 376.845C230.66 378.607 234.121 379.535 237.645 379.535C241.169 379.535 244.631 378.607 247.681 376.845L489.434 237.396L494.217 234.63L497.481 232.752C498.417 232.22 499.212 231.472 499.8 230.571C500.388 229.67 500.752 228.641 500.862 227.571V227.571Z" fill="url(#paint1_linear_140_37)"/>
<path d="M424.151 184.416L440.656 193.939C440.845 194.047 441.001 194.203 441.11 194.391C441.219 194.578 441.276 194.791 441.276 195.008C441.276 195.225 441.219 195.438 441.11 195.626C441.001 195.813 440.845 195.969 440.656 196.077V196.077C440.214 196.328 439.714 196.46 439.205 196.46C438.696 196.46 438.195 196.328 437.753 196.077L421.256 186.554C421.068 186.446 420.912 186.29 420.803 186.103C420.694 185.915 420.637 185.702 420.637 185.485C420.637 185.268 420.694 185.055 420.803 184.868C420.912 184.68 421.068 184.524 421.256 184.416V184.416C421.696 184.161 422.195 184.026 422.704 184.026C423.212 184.026 423.712 184.161 424.151 184.416V184.416Z" fill="#6B6B6B"/>
<path d="M414.451 182.078C415.739 182.078 416.784 181.473 416.784 180.728C416.784 179.983 415.739 179.378 414.451 179.378C413.163 179.378 412.118 179.983 412.118 180.728C412.118 181.473 413.163 182.078 414.451 182.078Z" fill="#9B9B9B"/>
<path d="M332.085 218.426C344.69 218.426 354.909 208.217 354.909 195.624C354.909 183.031 344.69 172.823 332.085 172.823C319.48 172.823 309.262 183.031 309.262 195.624C309.262 208.217 319.48 218.426 332.085 218.426Z" fill="white"/>
<path d="M363.728 195.331C363.538 187.073 360.121 179.217 354.207 173.444C348.294 167.671 340.354 164.439 332.086 164.439C323.818 164.439 315.878 167.671 309.964 173.444C304.051 179.217 300.634 187.073 300.443 195.331C300.443 195.532 300.443 195.758 300.443 195.976C300.439 201.246 301.755 206.433 304.27 211.065L305.025 212.373L332.077 259.233L359.147 212.381L359.902 211.065C362.421 206.435 363.736 201.247 363.728 195.976C363.745 195.758 363.745 195.532 363.728 195.331ZM332.077 179.001C336.472 179 340.696 180.701 343.861 183.746C347.027 186.791 348.887 190.944 349.052 195.331C349.052 195.549 349.052 195.758 349.052 195.976C349.052 200.481 347.261 204.8 344.073 207.985C340.885 211.171 336.561 212.96 332.052 212.96C327.544 212.96 323.219 211.171 320.031 207.985C316.843 204.8 315.052 200.481 315.052 195.976C315.052 195.758 315.052 195.549 315.052 195.331C315.217 190.935 317.085 186.775 320.261 183.729C323.438 180.682 327.674 178.987 332.077 179.001V179.001Z" fill="#ED4F3A"/>
<path d="M485.632 42.0253L465.904 51.4727C465.569 50.8105 465.208 50.1566 464.839 49.5112C460.387 41.8224 454.03 35.4077 446.379 30.8845L445.85 30.5575C442.698 28.7131 439.145 27.6603 435.495 27.4894C432.327 27.3394 429.162 27.8446 426.198 28.9732C427.323 28.3864 440.32 22.1915 442.838 20.9676L443.249 20.7748C446.683 18.8993 450.544 17.9444 454.457 18.0032C458.37 18.0619 462.201 19.1323 465.577 21.1101C473.455 25.6568 479.998 32.1932 484.549 40.0637C484.944 40.7008 485.304 41.363 485.632 42.0253Z" fill="#ADE2E4"/>
<path d="M514.908 113.305C514.92 115.074 514.636 116.834 514.069 118.51C512.777 122.093 510.212 125.077 506.861 126.893L505.401 127.606L505.275 127.656C503.09 128.56 500.724 128.946 498.364 128.783C496.004 128.62 493.714 127.913 491.673 126.717L413.721 81.8019C409.44 79.3415 405.882 75.7991 403.405 71.5306C400.928 67.262 399.618 62.4174 399.607 57.4833C399.607 54.1801 400.918 51.0116 403.252 48.6719C405.586 46.3323 408.753 45.0123 412.06 45.0012C412.931 41.3925 414.669 38.0502 417.124 35.2633C419.579 32.4765 422.676 30.329 426.148 29.0068H426.215C429.179 27.8782 432.344 27.373 435.512 27.523C439.16 27.6887 442.713 28.7358 445.867 30.5743L446.396 30.9013C454.047 35.4245 460.405 41.8392 464.856 49.528C465.225 50.1734 465.586 50.8273 465.921 51.4896C468.079 50.6484 470.4 50.3064 472.709 50.4893C475.019 50.6723 477.256 51.3753 479.255 52.5458C479.733 52.8308 480.22 53.1158 480.681 53.4344C485.387 56.4365 489.299 60.5285 492.085 65.3632C495.104 70.6316 496.719 76.5863 496.775 82.657C496.993 82.766 497.186 82.8666 497.404 82.9923C502.731 86.0557 507.151 90.4719 510.218 95.7929C512.453 99.6891 513.931 103.973 514.572 108.417C514.802 110.036 514.914 111.67 514.908 113.305Z" fill="#92CCD3"/>
<path d="M434.388 31.136H435.345C438.393 31.278 441.361 32.1552 443.996 33.6928L444.122 33.7766L444.524 34.0113C451.629 38.2346 457.529 44.2096 461.659 51.3638C461.978 51.9087 462.297 52.4955 462.632 53.1494L464.151 56.1001L467.239 54.8846C468.884 54.2505 470.651 53.9964 472.407 54.1416C474.164 54.2868 475.866 54.8274 477.384 55.7229C477.812 55.9744 478.223 56.2175 478.575 56.4606H478.634H478.693C485.051 60.5301 489.715 66.7678 491.816 74.0143V74.0562C492.639 76.8325 493.063 79.7114 493.075 82.6067V84.8617L495.114 85.9011C495.256 85.9682 495.391 86.0437 495.55 86.1359C500.328 88.8875 504.289 92.8563 507.029 97.6371C509.039 101.13 510.364 104.974 510.931 108.962C511.137 110.412 511.237 111.874 511.233 113.338C511.234 114.693 511.01 116.039 510.57 117.32C509.597 120.033 507.662 122.297 505.133 123.683L503.832 124.311C502.414 124.873 500.902 125.158 499.376 125.15C497.309 125.141 495.282 124.583 493.503 123.532L415.55 78.6248C411.829 76.4673 408.737 73.3752 406.58 69.6552C404.435 65.9448 403.306 61.7349 403.308 57.4498C403.317 55.1202 404.245 52.8881 405.892 51.2385C407.538 49.5888 409.77 48.6548 412.102 48.6394H415.005L415.668 45.8144C416.401 42.7867 417.861 39.983 419.923 37.646C421.984 35.309 424.585 33.509 427.499 32.4018L427.659 32.3348H427.709C429.858 31.5415 432.131 31.1329 434.422 31.1276L434.388 31.136ZM434.422 27.4559C431.628 27.4595 428.859 27.9708 426.249 28.9648H426.182C422.71 30.2871 419.612 32.4346 417.158 35.2214C414.703 38.0083 412.965 41.3506 412.093 44.9593C410.45 44.9604 408.822 45.2855 407.305 45.9159C405.787 46.5463 404.409 47.4696 403.249 48.633C402.089 49.7964 401.171 51.177 400.546 52.6957C399.921 54.2144 399.602 55.8413 399.607 57.4833C399.609 62.4198 400.91 67.2691 403.382 71.5438C405.854 75.8185 409.408 79.3679 413.688 81.8355L491.64 126.751C493.985 128.122 496.651 128.848 499.368 128.855C501.383 128.851 503.378 128.455 505.242 127.69L505.368 127.639L506.828 126.927C510.178 125.11 512.743 122.127 514.035 118.544C514.603 116.867 514.886 115.108 514.875 113.338V113.338C514.881 111.703 514.769 110.07 514.539 108.451C513.912 103.997 512.445 99.7018 510.218 95.7929C507.147 90.4626 502.717 86.0401 497.379 82.9755C497.161 82.8498 496.968 82.7492 496.75 82.6402C496.694 76.5695 495.079 70.6148 492.059 65.3464C489.274 60.5118 485.362 56.4198 480.656 53.4176C480.195 53.0991 479.708 52.814 479.23 52.529C476.876 51.1583 474.201 50.4324 471.476 50.4249C469.567 50.4241 467.675 50.7795 465.896 51.4728C465.561 50.8105 465.2 50.1567 464.831 49.5112C460.379 41.8224 454.022 35.4078 446.37 30.8845L445.842 30.5576C442.69 28.7132 439.136 27.6603 435.487 27.4895C435.11 27.4895 434.741 27.4895 434.363 27.4895L434.422 27.4559Z" fill="#7BB3BF"/>
<path d="M516.502 73.1926L496.758 82.6401C496.702 76.5694 495.087 70.6147 492.067 65.3463C489.282 60.5116 485.37 56.4196 480.664 53.4175C480.203 53.0989 479.716 52.8139 479.238 52.5289C477.239 51.3584 475.002 50.6554 472.692 50.4724C470.383 50.2895 468.062 50.6315 465.904 51.4727L485.632 42.0252C487.789 41.1809 490.109 40.8366 492.419 41.0181C494.728 41.1996 496.966 41.9022 498.965 43.0731C504.263 46.1296 508.668 50.5177 511.743 55.8015C514.818 61.0853 516.456 67.0808 516.494 73.1926H516.502Z" fill="#92CCD3"/>
<path d="M534.652 103.857C534.669 106.462 534.02 109.029 532.768 111.314C531.516 113.599 529.701 115.528 527.495 116.918L524.138 118.552L506.844 126.935C510.195 125.119 512.76 122.135 514.052 118.552C514.62 116.876 514.903 115.116 514.891 113.346V113.346C514.898 111.711 514.785 110.078 514.556 108.459C513.924 104.001 512.452 99.703 510.218 95.7928C507.147 90.4624 502.717 86.04 497.379 82.9754C497.161 82.8497 496.968 82.7491 496.75 82.6401L516.494 73.1926C516.704 73.2932 516.905 73.4022 517.115 73.5279C522.444 76.6024 526.868 81.0235 529.945 86.3472C533.022 91.6709 534.643 97.7097 534.644 103.857H534.652Z" fill="#7BB3BF"/>
<g opacity="0.2">
<g opacity="0.2">
<path opacity="0.2" d="M527.729 292.48L496.758 310.343L465.795 292.48L496.758 274.624L527.729 292.48Z" fill="black"/>
</g>
</g>
<path d="M496.757 257.029C499.124 257.029 501.037 260.172 501.037 264.053V289.294C501.037 293.175 499.124 293.335 496.757 293.335C494.399 293.335 492.486 293.175 492.486 289.294V264.053C492.486 260.172 494.399 257.029 496.757 257.029Z" fill="url(#paint2_linear_140_37)"/>
<path d="M521.134 270.307L496.758 283.284L472.391 270.307L496.758 231.352L521.134 270.307Z" fill="#184C16"/>
<path d="M517.408 257.322L496.758 269.226L476.116 257.322L496.758 221.594L517.408 257.322Z" fill="#2A8226"/>
<path d="M514.782 243.633L496.758 251.672L478.742 243.633L496.758 219.49L514.782 243.633Z" fill="#32992C"/>
<path d="M496.758 219.49V251.672L514.782 243.633L496.758 219.49Z" fill="#2A8226"/>
<path d="M496.758 269.226V251.672L510.527 245.41L517.408 257.322L496.758 269.226Z" fill="#20661E"/>
<path d="M496.758 283.284V269.226L514.177 259.183L521.134 270.307L496.758 283.284Z" fill="#10330F"/>
<g opacity="0.2">
<g opacity="0.2">
<path opacity="0.2" d="M223.221 414.148L188.348 434.267L153.467 414.148L188.348 394.029L223.221 414.148Z" fill="black"/>
</g>
</g>
<path d="M188.339 374.221C190.999 374.221 193.156 377.758 193.156 382.126V410.56C193.156 414.919 190.999 415.104 188.339 415.104C185.688 415.104 183.531 414.919 183.531 410.56V382.126C183.556 377.758 185.688 374.221 188.339 374.221Z" fill="url(#paint3_linear_140_37)"/>
<path d="M215.795 389.167L188.348 403.787L160.893 389.167L188.348 345.291L215.795 389.167Z" fill="#184C16"/>
<path d="M211.592 374.539L188.349 387.952L165.098 374.539L188.349 334.302L211.592 374.539Z" fill="#2A8226"/>
<path d="M208.638 359.123L188.349 368.185L168.051 359.123L188.349 331.938L208.638 359.123Z" fill="#32992C"/>
<path d="M188.348 331.938V368.185L208.637 359.123L188.348 331.938Z" fill="#2A8226"/>
<path d="M188.348 387.952V368.185L203.846 361.127L211.591 374.539L188.348 387.952Z" fill="#20661E"/>
<path d="M188.348 403.787V387.952L207.957 376.643L215.795 389.167L188.348 403.787Z" fill="#10330F"/>
</g>
</g>
<defs>
<linearGradient id="paint0_linear_140_37" x1="132.514" y1="264.883" x2="122.881" y2="264.883" gradientUnits="userSpaceOnUse">
<stop stop-color="#CC613B"/>
<stop offset="0.63" stop-color="#EF7745"/>
<stop offset="1" stop-color="#FF814A"/>
</linearGradient>
<linearGradient id="paint1_linear_140_37" x1="109.221" y1="311.324" x2="500.862" y2="311.324" gradientUnits="userSpaceOnUse">
<stop offset="0.29" stop-color="#212121"/>
<stop offset="0.39" stop-color="#1C1C1C"/>
</linearGradient>
<linearGradient id="paint2_linear_140_37" x1="5292.35" y1="11395.7" x2="5205.22" y2="11395.7" gradientUnits="userSpaceOnUse">
<stop stop-color="#CC613B"/>
<stop offset="0.63" stop-color="#EF7745"/>
<stop offset="1" stop-color="#FF814A"/>
</linearGradient>
<linearGradient id="paint3_linear_140_37" x1="2054.91" y1="18743.8" x2="1944.52" y2="18743.8" gradientUnits="userSpaceOnUse">
<stop stop-color="#CC613B"/>
<stop offset="0.63" stop-color="#EF7745"/>
<stop offset="1" stop-color="#FF814A"/>
</linearGradient>
<clipPath id="clip0_140_37">
<rect width="679" height="514" fill="white"/>
</clipPath>
<clipPath id="clip1_140_37">
<rect width="650" height="443" fill="white" transform="translate(30 18)"/>
</clipPath>
</defs>
</svg>
