<svg width="355" height="369" viewBox="0 0 355 369" fill="none" xmlns="http://www.w3.org/2000/svg">
<g clip-path="url(#clip0_140_37)">
<path d="M132.68 88.3507C83.3288 40.2622 39.8528 110.636 -42.3992 128.229L-80 368.671C-72.5582 369.453 -41.9291 367.498 21.0524 353.424C99.7793 335.83 66.8785 349.905 109.18 347.559C151.481 345.213 182.031 346.386 182.031 320.583C182.031 294.779 202.007 276.013 227.857 252.555C253.708 229.097 252.533 179.836 209.057 157.551C165.581 135.266 182.031 136.439 132.68 88.3507Z" fill="#ADE2E4"/>
<path d="M247.88 211.626C249.348 237.706 213.418 272.818 180.431 265.215C147.444 257.612 111.693 223.741 75.9418 232.983C40.1906 242.226 13.8198 263.989 -13.6148 243.865C-16.2473 241.932 -19.2524 239.669 -22.5371 237.134V47.902C31.7032 65.3415 85.5629 69.2821 147.444 70.568C216.369 72.0119 262.991 107.327 274.018 139.559C285.044 171.791 246.405 185.553 247.88 211.626Z" fill="#FFDEA9"/>
<g opacity="0.2">
<g opacity="0.2">
<path opacity="0.2" d="M178.428 142.935L121.128 174.979L63.8203 142.935L121.128 110.891L178.428 142.935Z" fill="black"/>
</g>
</g>
<path d="M121.12 79.344C125.484 79.344 129.033 84.9842 129.033 91.9329V137.22C129.033 144.176 125.484 144.462 121.12 144.462C116.748 144.462 113.207 144.176 113.207 137.22V91.9329C113.215 84.9842 116.756 79.344 121.12 79.344Z" fill="url(#paint0_linear_140_37)"/>
<path d="M166.228 103.153L121.128 126.443L76.0195 103.153L121.128 33.2748L166.228 103.153Z" fill="#184C16"/>
<path d="M159.334 79.8555L121.129 101.221L82.9238 79.8555L121.129 15.7753L159.334 79.8555Z" fill="#2A8226"/>
<path d="M154.471 55.3017L121.127 69.7406L87.7754 55.3017L121.127 12L154.471 55.3017Z" fill="#32992C"/>
<path d="M121.127 12V69.7406L154.471 55.3017L121.127 12Z" fill="#2A8226"/>
<path d="M121.127 101.22V69.7406L146.597 58.4978L159.332 79.8553L121.127 101.22Z" fill="#20661E"/>
<path d="M121.127 126.444V101.221L153.353 83.2019L166.228 103.153L121.127 126.444Z" fill="#10330F"/>
<g opacity="0.2">
<g opacity="0.2">
<path opacity="0.2" d="M230.44 203.143L187.125 227.365L143.803 203.143L187.125 178.92L230.44 203.143Z" fill="black"/>
</g>
</g>
<path d="M187.126 155.065C190.426 155.065 193.105 159.329 193.105 164.586V198.818C193.105 204.083 190.426 204.293 187.126 204.293C183.818 204.293 181.146 204.075 181.146 198.818V164.586C181.146 159.329 183.818 155.065 187.126 155.065Z" fill="url(#paint1_linear_140_37)"/>
<path d="M221.222 173.061L187.125 190.674L153.027 173.061L187.125 120.239L221.222 173.061Z" fill="#184C16"/>
<path d="M216.004 155.456L187.125 171.61L158.246 155.456L187.125 107.011L216.004 155.456Z" fill="#2A8226"/>
<path d="M212.332 136.896L187.126 147.808L161.912 136.896L187.126 104.161L212.332 136.896Z" fill="#32992C"/>
<path d="M187.125 104.161V147.808L212.331 136.896L187.125 104.161Z" fill="#2A8226"/>
<path d="M187.125 171.61V147.808L206.375 139.311L216.004 155.457L187.125 171.61Z" fill="#20661E"/>
<path d="M187.125 190.674V171.61L211.485 157.983L221.222 173.061L187.125 190.674Z" fill="#10330F"/>
<g opacity="0.2">
<g opacity="0.2">
<path opacity="0.2" d="M133.934 226.23L187.126 255.995L240.318 226.23L187.126 196.465L133.934 226.23Z" fill="black"/>
</g>
</g>
</g>
<defs>
<linearGradient id="paint0_linear_140_37" x1="129.04" y1="111.899" x2="113.215" y2="111.899" gradientUnits="userSpaceOnUse">
<stop stop-color="#CC613B"/>
<stop offset="0.63" stop-color="#EF7745"/>
<stop offset="1" stop-color="#FF814A"/>
</linearGradient>
<linearGradient id="paint1_linear_140_37" x1="3502.02" y1="11131.4" x2="3317.86" y2="11131.4" gradientUnits="userSpaceOnUse">
<stop stop-color="#CC613B"/>
<stop offset="0.63" stop-color="#EF7745"/>
<stop offset="1" stop-color="#FF814A"/>
</linearGradient>
<clipPath id="clip0_140_37">
<rect width="355" height="369" fill="white"/>
</clipPath>
</defs>
</svg>
