<svg width="1996" height="608" viewBox="0 0 1996 608" fill="none" xmlns="http://www.w3.org/2000/svg">
<path d="M1995.38 0H0V607.91H1995.38V0Z" fill="#BFBF91"/>
<path d="M1995.38 92.4799V69.8466L1898.96 0H1867.72L1893.66 18.7857L1865.95 63.3734L1769.21 0H1717.47L1658.38 103.004L1626.58 85.3504L1672.56 0H1651.53L1632.39 35.5344L1612.84 25.0325L1626.02 0H1599.84L1604 1.92384L1596.41 16.2508L1566.17 0H1527.66L1587.67 32.2525L1560.75 80.1221L1551.75 73.6263V34.9006L1518.32 17.8577L1489.11 2.01437L1490.25 0H1468.9L1420.39 85.0335L1397.35 71.8383L1420.29 29.1518L1422.04 30.0118L1431.2 0H1411.69L1410.43 4.14191L1401.88 0H1384.59L1357.25 48.9333L1342.01 40.2195L1364.21 0H1342.99L1272.89 127.041L1243.94 111.537L1306.94 0H1285.63L1266.93 32.9315L1231.65 13.6932L1239.22 0.113167H1218.03L1215.36 4.91144L1206.65 0H1168.56L1258.03 48.8202L1241.96 77.2703L1194.05 52.8715L1135.1 17.2919L1144.75 0H1123.48L1083.76 71.363L1057.4 58.462L1087.34 0H1066.45L1056 20.37L1018.8 0H980.899L1047.66 36.6208L1040.65 50.314L950.312 6.15627L953.7 0H932.506L892.245 72.7889L880.772 65.433L897.456 16.6582L908.555 0H886.31L885.866 0.656367L884.651 0H843.198L798.8 75.3238L759.637 53.3695L790.342 0H768.937L710.8 100.99L627.707 56.1307L657.36 0H636.33L611.327 47.3037L523.748 0H485.356L538.072 28.4501L517.462 64.1429L423.994 16.9977L433.925 0H412.427L360.669 88.4059L342.467 79.0131L387.004 0H365.693L325.969 70.4803L304.776 59.5484L336.485 0H315.454L288.279 51.0156L272.412 42.8223L296.527 0H275.24L255.915 34.2895L239.558 25.802L254.256 0H232.875L179.131 93.2947L179.669 93.5889L170.042 113.325L132.654 91.7557L184.249 0H162.961L0 290.499V331.239L31.7557 353.42L14.2305 393.82L18.9039 461.449L61.3617 561.488L21.6378 580.161L0 534.147V577.671L4.90707 588.06L0 590.323V607.819H5.58471L13.1322 604.311L15.0483 607.864H36.0786L29.9097 596.412L69.4467 577.83L86.0372 607.864H107.254L103.679 601.414L161.443 580.817L173.126 596.661L146.02 607.977H193.409L201.797 604.492L179.131 573.733L193.152 567.532L214.976 607.909H236.007L229.464 595.778L261.71 578.735L269.655 593.945L239.044 607.909H298.56L295.335 602.251L395.463 556.554L474.911 416.658L513.419 437.277L421.12 593.696L392.355 607.909H463.157L440.818 596.796L501.012 494.788L543.072 520.59L491.034 607.909H512.602L526.902 583.918L571.299 607.909H609.598L536.319 568.233L544.848 553.952L634.624 603.134L631.843 607.909H653.294L695.705 534.758L715.941 545.577L680.587 607.909H701.921L732.298 554.336L766.087 572.624L744.192 607.977H765.993L782.467 581.383L832.169 607.977H886.684L955.266 490.058L992.653 509.703L934.68 607.909H956.224L960.313 600.984L973.352 607.909H1033.64L1038.08 600.327L1051.91 607.909H1089.84L1083.08 604.311L1149.42 483.833L1167.09 494.267L1099.32 608H1120.91L1143.14 570.723L1157.9 580.998L1139.96 608H1162.18L1228.05 508.956L1192.49 487.998L1208.07 461.721L1260.72 492.298L1193.26 607.977H1214.73L1276.75 501.601L1327.78 531.25L1314.63 554.042L1277.24 534.487L1236.11 607.909H1257.38L1284.79 559.044L1305.51 569.885L1283.5 608H1304.91L1321.96 578.577L1334.75 585.253L1322.57 607.909H1343.6L1351.2 593.673L1363.46 600.101L1359.73 607.909H1380.33L1381.67 605.126L1424.15 604.356L1423.89 607.909H1442.58L1442.89 604.039L1455.2 603.813L1455.37 607.909H1474.06L1472.12 554.698L1503.76 551.009L1509.04 607.909H1527.73L1526.17 591.07L1597.48 462.852L1831.97 592.202L1822.39 607.909H1844.1L1995.38 359.87V324.223L1992.64 328.75L1951.77 306.478L1995.38 224.749V185.299L1935.49 297.538L1915.42 286.606L1982.53 160.697L1995.38 170.859V147.479L1922.94 90.2166L1943.76 55.0896L1995.38 92.4799ZM1856.3 78.8999L1794.33 178.487L1775.63 168.143L1837.25 66.4516L1856.3 78.8999ZM1756.99 273.547L1781.38 234.346L1877.19 286.561L1853.52 326.147L1756.99 273.547ZM1844.08 341.764L1795.22 422.429L1775.89 409.347L1822.84 330.13L1844.08 341.764ZM1709.62 314.604L1692.91 304.69L1766.22 183.738L1784.68 193.991L1709.62 314.604ZM1263.9 212.754L1259.34 220.698C1241.6 251.479 1232.28 268.228 1227.47 277.983L1214.31 271.397L1257.77 192.7L1305.14 220.019L1297.52 231.019L1263.9 212.754ZM1287.08 246.115L1255.37 291.97L1244.08 286.335C1249.2 276.376 1260.11 256.753 1271.12 237.492L1287.08 246.115ZM1261.61 315.419L1321.22 229.412L1333.93 236.745L1270.56 347.875L1194.47 307.361L1205.5 287.444L1261.61 315.419ZM1515.51 160.471L1492.8 200.826L1438.14 172.24L1462.89 130.368L1515.51 160.471ZM1472.12 114.638L1480.14 101.058L1533.88 127.539L1524.3 144.559L1472.12 114.638ZM1483.8 216.737L1473.71 234.663L1383.89 186.522L1393.58 169.524L1483.8 216.737ZM1464.76 250.551L1447.54 281.152L1359 230.091L1374.8 202.365L1464.76 250.551ZM1438.59 297.063L1434.36 304.577L1356.62 266.938L1302.87 365.008L1286.91 356.521L1350 245.934L1438.59 297.063ZM1382.51 367.498L1405.87 310.914L1425.39 320.488L1377.95 404.888L1319.3 373.722L1332.06 350.432L1382.51 367.498ZM1340.91 334.249L1364.63 291.02L1389.05 302.834L1371.81 344.683L1340.91 334.249ZM1277.82 372.364L1385.31 429.513L1481.12 259.31L1504.83 272.03L1397.35 471.702L1262.73 399.004L1277.82 372.364ZM1544.56 237.809L1571.8 253.969L1496 385.921L1471.93 372.636L1544.56 237.809ZM1589.42 312.34L1570.26 341.945L1548.37 331.805L1566.48 300.254L1589.42 312.34ZM1539.25 347.648L1619.66 384.903L1609.19 403.689L1533.69 357.313L1539.25 347.648ZM1587.23 349.912L1605.92 321.145L1649.94 344.367L1629.78 369.625L1587.23 349.912ZM1640.36 385.786L1666.56 353.08L1680.97 360.685L1641.74 423.742L1625.03 413.466L1640.36 385.786ZM1575.54 284.433L1587.6 263.43L1699.95 330.085L1690.6 345.091L1575.54 284.433ZM1710.46 240.163L1701.37 255.146L1618.19 210.219L1627.28 194.375C1649.29 204.877 1692.59 229.819 1710.46 240.163ZM1636.37 178.577L1643.84 165.563L1727.57 211.712L1719.81 224.523C1702.03 214.179 1659.78 189.849 1636.37 178.577ZM1691.77 270.763L1676.96 295.207L1596.71 247.677L1609.07 226.13L1691.77 270.763ZM1738.08 1.4938L1821.76 56.2439L1810.66 74.6901L1727.1 20.5964L1738.08 1.4938ZM1717.99 36.4623L1801.17 90.2166L1782.22 121.519L1697.26 72.5626L1717.99 36.4623ZM1688.17 88.5191L1772.76 137.249L1759.44 159.203L1674.6 112.126L1688.17 88.5191ZM1665.51 127.946L1750 174.82L1737.03 196.209L1652.91 149.833L1665.51 127.946ZM1649.29 118.893L1580.78 238.126L1553.11 221.807L1617.93 101.42L1649.29 118.893ZM1604.03 41.0343L1623.68 51.6041L1581.22 130.413L1559.68 119.821L1604.03 41.0343ZM1572.6 146.46L1513.57 255.983L1490.21 243.422L1550.73 135.8L1572.6 146.46ZM1551.73 96.1692L1543.02 111.628L1489.48 85.3278L1499.3 68.7149L1537.55 86.0068L1551.73 96.1692ZM1517.5 37.8882L1533.06 45.8326V63.9392L1508.6 52.8942L1517.5 37.8882ZM1480.11 17.8577L1501.14 29.1744L1456.07 105.426L1436.51 94.2453L1480.11 17.8577ZM1427.47 110.111L1446.79 121.156L1421.69 163.639L1402.63 153.658L1427.47 110.111ZM1396.11 17.4503L1403.54 21.049L1381.2 62.6265L1373.37 58.0998L1396.11 17.4503ZM1333.18 56.1986L1348.37 64.8672L1330.61 96.6671L1351.03 111.899L1343.6 131.975L1303.41 110.089L1333.18 56.1986ZM1294.53 126.068L1353.6 158.252L1373.16 105.585L1354.47 91.7104L1364.33 74.079L1411.37 100.9L1367.53 177.853L1289.2 135.8L1294.53 126.068ZM1280.51 151.779L1358.6 193.606L1343.09 220.766L1266.61 176.767L1280.51 151.779ZM1264.15 143.02L1169.28 314.604L1261.54 363.65L1246.4 390.177L1123.79 323.997L1234.92 127.426L1264.15 143.02ZM629.67 443.003L614.014 470.457L538.983 430.305L552.84 406.789L629.67 443.003ZM562.14 390.946L606.07 316.505L644.555 339.863L602.635 410.026L562.14 390.946ZM619.482 417.97L660.445 349.414L679.512 360.731L638.947 427.069L619.482 417.97ZM877.968 191.252L854.834 178.804L876.426 139.784L900.33 153.183C890.936 169.456 883.015 183.036 877.968 191.252ZM916.523 162.213L1005.32 212.007L984.708 248.967L894.301 200.079C899.629 191.433 907.48 177.898 916.523 162.213ZM975.455 264.629L954.612 298.376L828.92 224.704L845.885 194.647L975.455 264.629ZM819.924 240.593L849.273 257.794L810.531 326.78L780.785 309.692L819.924 240.593ZM764.685 300.458L745.08 289.141L785.808 222.531L803.637 231.585L764.685 300.458ZM844.343 346.29L826.631 336.105L865.28 267.277L882.571 277.417L844.343 346.29ZM898.577 286.81L910.261 293.6L870.023 360.98L860.443 355.344L898.577 286.81ZM817.681 352.017L835.487 362.247L798.427 429.038L780.761 417.721L817.681 352.017ZM851.587 371.481L860.746 376.732L821.022 443.252L814.153 438.951L851.587 371.481ZM876.823 385.967L894.348 396.039L852.895 463.033L836.772 452.961L876.823 385.967ZM886.17 370.304L926.314 303.061L945.008 314.015L903.929 380.489L886.17 370.304ZM812.634 215.809L786.93 202.682L757.815 186.703L775.714 156.736L829.528 185.865L812.634 215.809ZM769.405 213.931L729.05 279.975L708.931 268.432L748.398 202.388L769.405 213.931ZM719.47 295.546L689.092 345.34L669.861 333.865L699.584 284.071L719.47 295.546ZM650.724 443.614L683.204 390.471L705.356 405.341L655.771 492.887L630.371 479.307L650.724 443.614ZM692.784 374.854L735.593 304.871L755.712 316.437L714.399 389.294L692.784 374.854ZM771.812 325.671L801.628 342.782L743.818 445.719L713.441 428.834L771.812 325.671ZM771.812 433.768L805.226 454.931L843.244 478.65L833.01 495.218L759.988 454.704L771.812 433.768ZM844.623 511.853L910.425 405.137L935.521 419.532L858.269 547.886L832.402 535.37L844.623 511.853ZM920.052 389.633L961.014 323.295L985.035 337.373L944.961 403.938L920.052 389.633ZM1001.04 346.63L1011.95 353.035L974.03 420.528L961.037 413.059L1001.04 346.63ZM970.665 307.633L991.859 273.32L1098.25 330.968L1075.56 369.444L970.665 307.633ZM1001.04 257.59L1021.51 220.902L1127.22 280.156L1107.6 315.17L1001.04 257.59ZM1030.48 205.081L1041.54 185.277L1096.5 216.511L1086.05 236.224L1030.48 205.081ZM1233.08 93.1589L1136.31 264.38L1102.27 245.3L1193.52 72.9926L1233.08 93.1589ZM1126.29 33.2484L1177.25 64.0071L1168.21 81.0727L1116.1 51.3325L1126.29 33.2484ZM1107.31 67.1985L1159.56 97.3235L1104.93 200.373L1085.98 189.6L1132.27 104.702L1099.56 80.869L1107.31 67.1985ZM1090.75 96.8934L1108.39 109.772L1069.83 180.411L1050.3 169.32L1090.75 96.8934ZM1049.01 74.6901L1074.72 87.2969L1013.96 195.937L992.676 184.009L1049.01 74.6901ZM1032.33 66.5194L976.74 175.001L967.113 169.592C980.759 146.46 1008.36 89.5376 1021.86 61.3817L1032.33 66.5194ZM1005.08 53.2337C986.297 92.412 961.295 142.884 951.036 160.697L925.636 146.46C948.069 107.26 973.959 61.2006 984.054 43.0487L1005.08 53.2337ZM941.479 22.1354L967.393 34.8101C951.036 63.8487 928.511 103.932 909.42 137.317L885.258 123.737L941.479 22.1354ZM860.302 7.51428L877.664 16.9524L864.579 55.1122L841.212 40.0611L860.302 7.51428ZM831.865 55.8139L883.436 88.8133L869.112 114.706L814.994 84.3772L831.865 55.8139ZM750.548 69.1902L860.373 130.662L838.641 169.954L727.134 109.817L750.548 69.1902ZM717.974 125.593L759.427 147.909L654.042 324.268L615.463 300.865L641.774 256.255L717.974 125.593ZM701.617 116.788L634.46 231.834L592.4 209.54L658.341 93.3852L701.617 116.788ZM331.25 487.975L299.097 496.599L289.353 474.576L306.949 466.293L343.939 402.195L370.577 415.775L331.25 487.975ZM386.981 424.172L404.389 433.089L357.982 504.973L353.028 507.734L347.958 496.101L386.981 424.172ZM293.349 452.396L182.987 504.384L156.863 408.193L276.689 195.688L401.351 265.399L293.349 452.396ZM153.404 466.587L118.354 479.759L107.091 422.361L134.243 356.068L157.61 369.173L137.001 405.748L153.404 466.587ZM175.533 202.953L188.899 212.007L146.441 291.54L131.065 282.034L175.533 202.953ZM115.246 272.279L100.057 262.909L144.198 181.701L160.134 192.497L115.246 272.279ZM204.788 221.671L232.198 236.813L166.49 353.352L141.838 339.5L204.788 221.671ZM374.783 199.649L362.422 222.712L285.638 179.709L297.999 157.822L374.783 199.649ZM372.61 177.695L401.281 129.916L412.357 135.619L383.756 183.76L372.61 177.695ZM378.639 231.788L395.44 200.396L428.854 144.152L461.568 161.036L410.465 249.578L378.639 231.788ZM530.524 197.408L510.475 232.173L495.871 224.455L516.247 189.871L530.524 197.408ZM525.524 174.141L563.775 109.251L577.165 116.449L539.544 181.61L525.524 174.141ZM479.42 215.764L457.946 204.447L478.018 169.75L499.796 181.293L479.42 215.764ZM448.833 220.291L470.144 231.607L422.008 313.291L401.445 302.472L448.833 220.291ZM486.547 240.253L501.292 248.039L453.95 330.04L438.435 321.869L486.547 240.253ZM546.788 206.099L566.883 216.737L491.408 349.708L470.377 338.595L546.788 206.099ZM555.924 190.256L593.521 125.185L612.963 135.551L575.973 200.871L555.924 190.256ZM554.288 37.2319L641.891 84.513L621.959 119.64L533.866 72.6531L554.288 37.2319ZM524.823 88.5191L547.348 100.515L509.073 165.45L487.132 153.907L524.823 88.5191ZM508.466 79.9637L470.681 145.238L438.201 128.467L476.546 63.9166L508.466 79.9637ZM459.956 55.5649L421.681 119.957L410.675 114.253L449.137 50.1329L459.956 55.5649ZM414.741 32.7505L432.546 41.8038L394.154 105.72L377.167 96.9387L414.741 32.7505ZM368.007 112.692L384.831 121.383L356.37 168.913L340.27 160.154L368.007 112.692ZM333.564 94.9017L351.439 104.113L323.913 151.213L306.949 142.002L333.564 94.9017ZM296.177 75.6407L316.95 86.3689L290.662 133.129L271.267 122.582L296.177 75.6407ZM263.463 58.7109L279.82 67.1079L255.051 113.71L237.853 104.362L263.463 58.7109ZM230.352 41.6228L246.966 50.2008L221.449 95.4675L204.648 86.4142L230.352 41.6228ZM196.119 102.484L281.689 149.018L269.515 170.61L186.305 122.628L196.119 102.484ZM123.845 107.667L260.542 186.522L241.147 220.924L205.98 201.437L137.561 155.084L84.238 253.154L53.0197 233.893L123.845 107.667ZM44.0701 249.85L137.865 307.678L125.644 330.447L29.162 276.444L44.0701 249.85ZM7.85131 314.423L20.2358 292.355L117.816 347.015L108.353 370.123L81.7845 358.037L48.1594 342.465L7.85131 314.423ZM100.478 486.617L87.3458 491.551L79.2608 472.969L70.7786 425.055L83.8174 379.131L101.436 387.03L87.6262 420.686L100.478 486.617ZM57.9501 505.878L37.3872 457.307L33.1811 396.899L48.0659 362.541L66.7595 371.187L51.7579 424.013L61.2916 477.949L70.4748 499.066L57.9501 505.878ZM78.256 553.703L65.1238 522.74L86.1541 511.423L158.218 484.354L165.906 512.442L78.256 553.703ZM161.326 561.715L94.7298 585.457L86.2242 570.089L172.682 529.349L184.599 551.394L161.326 561.715ZM220.865 579.821L189.576 521.427L223.435 505.584L253.275 562.665L220.865 579.821ZM286.526 586.34L240.213 497.708L272.366 482.589L312.884 574.208L286.526 586.34ZM306.341 513.528L332.185 506.738L336.695 517.082L313.562 529.96L306.341 513.528ZM329.708 566.604L320.922 546.686L345.598 532.925L359.618 552.978L329.708 566.604ZM381.91 542.793L376.699 545.057L361.838 523.759L371.301 518.485L420.91 441.532L435.117 448.797L381.91 542.793ZM444.136 433.157L352.842 386.397L368.264 359.667L458.39 407.898L444.136 433.157ZM467.503 392.146L377.494 343.982L392.308 318.27L482.505 365.8L467.503 392.146ZM483.86 400.905L583.38 225.519L625.254 247.7L522.626 421.66L483.86 400.905ZM643.527 587.472L553.938 538.38L559.032 529.87L649.439 577.151L643.527 587.472ZM658.599 561.307L560.2 509.726L510.218 478.99L529.706 445.968L679.115 525.931L658.599 561.307ZM672.128 501.487L704.374 444.542L824.06 510.948L815.671 527.357L815.321 527.176L796.324 568.097L672.128 501.487ZM866.565 605.601L812.821 576.811L824.504 551.711L881.753 579.414L866.565 605.601ZM890.937 563.684L875.024 555.989L924.468 473.829L938.839 481.366L890.937 563.684ZM948.022 465.591L934.002 458.19L951.691 428.766L965.057 436.439L948.022 465.591ZM964.379 474.192L985.713 437.503L990.129 429.921L1027.96 362.564L1066.4 385.197L1002.05 494.041L964.379 474.192ZM1012.07 607.728L969.496 585.095L1114.61 339.795L1155.96 362.134L1012.07 607.728ZM1142.16 458.19L1066.82 595.257L1047.26 584.529L1141.76 423.063L1192.04 452.282L1176.46 478.447L1142.16 458.19ZM1201.81 514.547L1167.91 565.54L1152.41 554.744L1183.07 503.592L1201.81 514.547ZM1269.86 476.319L1150.99 407.401L1172.3 370.961L1293.36 436.326L1269.86 476.319ZM1377.86 586.928L1331.12 562.462L1343.88 540.394L1385.66 564.793L1453.43 556.871L1454.55 585.729L1377.86 586.928ZM1389.54 545.939L1285.77 485.644L1309.51 444.904L1404.85 496.395L1406.83 492.706L1497.82 487.862L1502.01 532.948L1389.54 545.939ZM1501.84 469.348L1416.9 474.056L1462.96 388.57L1538.72 430.373L1501.84 469.348ZM1522.87 558.229L1515.75 481.276L1555.26 439.495L1580.96 453.686L1522.87 558.229ZM1589.87 437.797L1511.84 394.794L1524.32 373.088L1600.03 419.577L1589.87 437.797ZM1621.67 455.361L1606.11 446.76L1615.85 429.242L1631.81 439.042L1621.67 455.361ZM1638.03 464.414L1747.17 288.983L1772.46 302.766L1665.25 479.443L1638.03 464.414ZM1681.49 488.405L1788.74 311.661L1806.48 321.326L1701.12 499.179L1681.49 488.405ZM1717.19 508.096L1766.54 425.122L1785.64 438.091L1736.7 518.87L1717.19 508.096ZM1752.87 527.787L1860.2 350.613L1886.86 365.144L1781.71 543.699L1752.87 527.787ZM1841.27 576.562L1798.11 552.707L1903.26 374.084L1949.53 399.298L1841.27 576.562ZM1982.97 344.253L1959.09 383.703L1869.78 334.974L1893.45 295.365L1982.97 344.253ZM1967.55 148.928L1899.11 277.711L1879.15 266.847L1951.35 136.049L1967.55 148.928ZM1936.59 124.483L1862.86 258.02L1833.12 241.815L1913.5 106.196L1936.59 124.483ZM1816.83 232.988L1791.13 218.933L1908.8 29.8081L1928.78 44.2709L1816.83 232.988Z" fill="white"/>
<path opacity="0.9" d="M1995.38 0H0V607.91H1995.38V0Z" fill="#252946"/>
</svg>
