<svg width="2281" height="2156" viewBox="0 0 2281 2156" fill="none" xmlns="http://www.w3.org/2000/svg">
<rect x="374" y="121" width="1532" height="2035" fill="white"/>
<path d="M2152.14 1016.95C2175.67 915.495 2085.72 940.7 2059.79 921.129C1984.21 898.509 2102.73 859.954 2059.15 800.477C2015.56 741 1907.38 730.471 1819.28 775.998C1731.18 821.525 1761.3 908.523 1774.96 919.375C1788.62 930.226 1878.71 971.29 1734.87 1109.64C1591.02 1247.99 1686.12 1380.27 1761.56 1364.27C1836.99 1348.28 1842.3 1381.29 1908.73 1457.54C1975.15 1533.79 2045.88 1454.24 2046.08 1424.23C2046.27 1394.22 2082.1 1349.33 2140.92 1317.56C2199.75 1285.8 2197.57 1229.22 2168.83 1185.14C2140.09 1141.06 2128.61 1118.4 2152.14 1016.95Z" fill="#ADE2E4"/>
<path d="M440.1 201.641C358.254 137.24 342.853 229.375 314.121 244.532C261.532 303.338 276.987 179.665 204.627 193.851C132.268 208.036 76.7731 301.491 80.5557 400.586C84.3382 499.681 175.891 509.379 191.518 501.624C207.145 493.869 282.596 429.761 346.722 618.759C410.848 807.756 570.995 777.872 588.566 702.787C606.136 627.702 638.276 636.921 735.522 609.187C832.769 581.453 790.813 483.624 763.726 470.699C736.638 457.775 711.227 406.266 707.468 339.519C703.708 272.772 651.562 250.71 599.447 257.995C547.333 265.279 521.945 266.043 440.1 201.641Z" fill="#FFDEA9"/>
</svg>
