<svg width="1119" height="511" viewBox="0 0 1119 511" fill="none" xmlns="http://www.w3.org/2000/svg">
<g clip-path="url(#clip0_140_37)">
<path d="M1103.25 26.3979C1201.63 -47.971 1162.65 50.0288 1162.65 132.218C1156.15 287.029 1160.32 308.541 1162.65 436.028C1164.59 543.029 1163.29 461.529 840.138 486.485C516.86 511.451 445.464 449.678 403.605 380.665C361.745 311.652 439.484 261.042 535.163 247.24C630.842 233.437 621.871 117.265 762.4 132.218C917.242 148.694 965.692 130.389 1103.25 26.3979Z" fill="#FFDEA9"/>
<path d="M668.948 233.242C656.416 184.021 733.068 108.421 817.054 114.752C901.039 121.084 933.152 183.142 1018.2 156.767C1103.25 130.393 1058.65 41.764 1133.22 73.2672C1133.22 114.752 1133.21 203.5 1133.21 211.267L1131.46 470C991.672 450.201 1118.06 463.887 964.946 476.68C794.397 490.907 667.3 435.249 629.081 376.687C590.863 318.125 681.496 282.446 668.948 233.242Z" fill="#ADE2E4"/>
</g>
<defs>
<clipPath id="clip0_140_37">
<rect width="1119" height="511" fill="white"/>
</clipPath>
</defs>
</svg>
