<svg width="431" height="881" viewBox="0 0 431 881" fill="none" xmlns="http://www.w3.org/2000/svg">
<g clip-path="url(#clip0_140_37)">
<path d="M631.139 372.949C654.664 271.495 564.715 296.7 538.786 277.129C463.208 254.509 581.73 215.954 538.145 156.477C494.559 97.0004 386.381 86.4707 298.282 131.998C210.184 177.525 240.303 264.523 253.963 275.375C267.622 286.227 357.713 327.291 213.869 465.641C70.0239 603.992 165.12 736.269 240.556 720.273C315.992 704.276 321.302 737.288 387.726 813.537C454.149 889.786 524.884 810.241 525.075 780.228C525.266 750.216 561.098 705.328 619.923 673.565C678.749 641.802 676.565 585.223 647.828 541.142C619.092 497.06 607.613 474.402 631.139 372.949Z" fill="#ADE2E4"/>
</g>
<defs>
<clipPath id="clip0_140_37">
<rect width="431" height="881" fill="white"/>
</clipPath>
</defs>
</svg>
