<svg width="431" height="683" viewBox="0 0 431 683" fill="none" xmlns="http://www.w3.org/2000/svg">
<g clip-path="url(#clip0_140_37)">
<path d="M-246.889 381.472C-325.641 449.621 -238.098 482.213 -228.664 513.298C-180.896 576.083 -299.395 537.458 -299.188 611.195C-298.98 684.931 -217.744 757.14 -119.729 772.216C-21.7151 787.292 5.1668 699.24 0.515874 682.426C-4.13506 665.612 -52.7732 579.374 144.955 552.248C342.683 525.123 343.708 362.214 273.317 330.725C202.926 299.236 218.071 269.427 209.281 168.686C200.49 67.9453 96.4795 90.5894 78.6531 114.735C60.8268 138.88 5.43424 154.063 -60.8149 145.098C-127.064 136.134 -158.614 183.15 -161.343 235.7C-164.072 288.25 -168.136 313.323 -246.889 381.472Z" fill="#FFDEA9"/>
</g>
<defs>
<clipPath id="clip0_140_37">
<rect width="431" height="683" fill="white"/>
</clipPath>
</defs>
</svg>
