<svg width="655" height="529" viewBox="0 0 655 529" fill="none" xmlns="http://www.w3.org/2000/svg">
<g clip-path="url(#clip0_140_37)">
<path d="M564.3 42.3693C667.373 -16.5219 772.9 88.3781 812.779 148.19C849.59 266.279 885.482 496.016 734.554 470.251C545.894 438.045 610.314 474.852 361.836 502.457C113.357 530.062 58.1398 465.65 25.9296 396.637C-6.28056 327.623 53.5384 277.014 127.162 263.211C200.785 249.409 193.883 133.236 302.017 148.19C421.166 164.666 435.459 115.983 564.3 42.3693Z" fill="#FFDEA9"/>
<path d="M148.753 242.474C139.11 193.254 198.093 117.653 262.719 123.985C327.344 130.316 404.124 185.907 469.569 159.532C535.014 133.158 579.358 85.2883 636.735 116.792C642.241 119.818 648.541 123.381 655.444 127.39L705.194 487.147C597.632 467.348 494.341 473.119 376.519 485.912C245.284 500.139 147.485 444.481 118.077 385.919C88.6682 327.357 158.409 291.679 148.753 242.474Z" fill="#ADE2E4"/>
</g>
<defs>
<clipPath id="clip0_140_37">
<rect width="655" height="529" fill="white"/>
</clipPath>
</defs>
</svg>
