<svg width="52" height="52" viewBox="0 0 52 52" fill="none" xmlns="http://www.w3.org/2000/svg">
<path fill-rule="evenodd" clip-rule="evenodd" d="M15.085 0.154C17.822 0.028 18.6947 0 25.6667 0C32.6387 0 33.5113 0.0303333 36.246 0.154C38.9807 0.277667 40.8473 0.714 42.4807 1.34633C44.191 1.99267 45.7427 3.003 47.026 4.30967C48.3327 5.59067 49.3407 7.14 49.9847 8.85267C50.6193 10.486 51.0533 12.3527 51.1793 15.0827C51.3053 17.8243 51.3333 18.697 51.3333 25.6667C51.3333 32.6387 51.303 33.5113 51.1793 36.2483C51.0557 38.9783 50.6193 40.845 49.9847 42.4783C49.3406 44.1912 48.331 45.7431 47.026 47.026C45.7427 48.3327 44.191 49.3407 42.4807 49.9847C40.8473 50.6193 38.9807 51.0533 36.2507 51.1793C33.5113 51.3053 32.6387 51.3333 25.6667 51.3333C18.6947 51.3333 17.822 51.303 15.085 51.1793C12.355 51.0557 10.4883 50.6193 8.855 49.9847C7.14215 49.3406 5.59025 48.3309 4.30733 47.026C3.00155 45.7442 1.99107 44.1931 1.34633 42.4807C0.714 40.8473 0.28 38.9807 0.154 36.2507C0.028 33.509 0 32.6363 0 25.6667C0 18.6947 0.0303333 17.822 0.154 15.0873C0.277667 12.3527 0.714 10.486 1.34633 8.85267C1.99202 7.14019 3.00328 5.58906 4.30967 4.30733C5.59076 3.00184 7.1411 1.99137 8.85267 1.34633C10.486 0.714 12.3527 0.28 15.0827 0.154H15.085ZM36.0383 4.774C33.3317 4.65033 32.5197 4.62467 25.6667 4.62467C18.8137 4.62467 18.0017 4.65033 15.295 4.774C12.7913 4.88833 11.4333 5.306 10.528 5.65833C9.331 6.125 8.47467 6.678 7.57633 7.57633C6.72477 8.40479 6.06942 9.41332 5.65833 10.528C5.306 11.4333 4.88833 12.7913 4.774 15.295C4.65033 18.0017 4.62467 18.8137 4.62467 25.6667C4.62467 32.5197 4.65033 33.3317 4.774 36.0383C4.88833 38.542 5.306 39.9 5.65833 40.8053C6.069 41.9183 6.72467 42.9287 7.57633 43.757C8.40467 44.6087 9.415 45.2643 10.528 45.675C11.4333 46.0273 12.7913 46.445 15.295 46.5593C18.0017 46.683 18.8113 46.7087 25.6667 46.7087C32.522 46.7087 33.3317 46.683 36.0383 46.5593C38.542 46.445 39.9 46.0273 40.8053 45.675C42.0023 45.2083 42.8587 44.6553 43.757 43.757C44.6087 42.9287 45.2643 41.9183 45.675 40.8053C46.0273 39.9 46.445 38.542 46.5593 36.0383C46.683 33.3317 46.7087 32.5197 46.7087 25.6667C46.7087 18.8137 46.683 18.0017 46.5593 15.295C46.445 12.7913 46.0273 11.4333 45.675 10.528C45.2083 9.331 44.6553 8.47467 43.757 7.57633C42.9285 6.72483 41.92 6.06949 40.8053 5.65833C39.9 5.306 38.542 4.88833 36.0383 4.774V4.774ZM22.3883 33.579C24.2192 34.3411 26.2579 34.444 28.1562 33.87C30.0545 33.296 31.6946 32.0808 32.7964 30.4319C33.8983 28.783 34.3935 26.8027 34.1974 24.8292C34.0014 22.8558 33.1263 21.0116 31.7217 19.6117C30.8262 18.7168 29.7435 18.0316 28.5514 17.6053C27.3594 17.1791 26.0877 17.0225 24.8278 17.1468C23.568 17.271 22.3514 17.6731 21.2655 18.324C20.1797 18.9749 19.2517 19.8584 18.5484 20.911C17.845 21.9636 17.3838 23.159 17.1979 24.4112C17.012 25.6635 17.106 26.9413 17.4733 28.1529C17.8405 29.3644 18.4718 30.4794 19.3217 31.4177C20.1716 32.3559 21.2189 33.0941 22.3883 33.579ZM16.338 16.338C17.5631 15.1129 19.0174 14.1412 20.618 13.4782C22.2186 12.8152 23.9342 12.4739 25.6667 12.4739C27.3992 12.4739 29.1147 12.8152 30.7153 13.4782C32.3159 14.1412 33.7703 15.1129 34.9953 16.338C36.2204 17.5631 37.1922 19.0174 37.8552 20.618C38.5182 22.2186 38.8594 23.9342 38.8594 25.6667C38.8594 27.3992 38.5182 29.1147 37.8552 30.7153C37.1922 32.3159 36.2204 33.7703 34.9953 34.9953C32.5212 37.4694 29.1656 38.8594 25.6667 38.8594C22.1677 38.8594 18.8121 37.4694 16.338 34.9953C13.8639 32.5212 12.4739 29.1656 12.4739 25.6667C12.4739 22.1677 13.8639 18.8121 16.338 16.338V16.338ZM41.7853 14.4387C42.0889 14.1523 42.3319 13.8079 42.5 13.4259C42.6681 13.044 42.7579 12.6321 42.764 12.2148C42.7701 11.7975 42.6924 11.3833 42.5355 10.9966C42.3786 10.6098 42.1457 10.2585 41.8506 9.96342C41.5555 9.66832 41.2042 9.43543 40.8174 9.27854C40.4307 9.12165 40.0164 9.04394 39.5992 9.05003C39.1819 9.05611 38.77 9.14586 38.3881 9.31396C38.0061 9.48206 37.6617 9.72509 37.3753 10.0287C36.8184 10.6191 36.5135 11.4033 36.5253 12.2148C36.5371 13.0264 36.8648 13.8014 37.4387 14.3753C38.0126 14.9492 38.7876 15.2769 39.5992 15.2887C40.4107 15.3005 41.1949 14.9956 41.7853 14.4387V14.4387Z" fill="#474747"/>
</svg>
