<svg width="418" height="628" viewBox="0 0 418 628" fill="none" xmlns="http://www.w3.org/2000/svg">
<g clip-path="url(#clip0_250_37)">
<rect width="418" height="628" fill="white"/>
<path d="M-32.901 42.6415C-114.746 -21.7602 -130.147 70.3752 -158.88 85.5323C-211.468 144.338 -196.013 20.6652 -268.373 34.8506C-340.733 49.0361 -396.227 142.491 -392.445 241.586C-388.662 340.681 -297.11 350.379 -281.483 342.624C-265.856 334.869 -190.405 270.761 -126.279 459.759C-62.1528 648.756 97.9949 618.872 115.565 543.787C133.135 468.702 165.275 477.921 262.522 450.187C359.768 422.453 317.813 324.624 290.725 311.699C263.638 298.775 238.227 247.266 234.467 180.519C230.707 113.772 178.561 91.7097 126.447 98.9945C74.3328 106.279 48.9445 107.043 -32.901 42.6415Z" fill="#FFDEA9"/>
</g>
<defs>
<clipPath id="clip0_250_37">
<rect width="418" height="628" fill="white"/>
</clipPath>
</defs>
</svg>
