<svg width="549" height="782" viewBox="0 0 549 782" fill="none" xmlns="http://www.w3.org/2000/svg">
<g clip-path="url(#clip0_250_37)">
<rect width="549" height="782" fill="white"/>
<path d="M788.139 307.949C811.664 206.495 721.715 231.7 695.786 212.129C620.208 189.509 738.73 150.954 695.145 91.477C651.559 32.0002 543.381 21.4706 455.282 66.9978C367.184 112.525 397.303 199.523 410.963 210.375C424.622 221.226 514.713 262.29 370.869 400.641C227.024 538.992 322.12 671.269 397.556 655.273C472.992 639.276 478.302 672.288 544.726 748.537C611.149 824.786 681.884 745.24 682.075 715.228C682.266 685.216 718.098 640.328 776.923 608.565C835.749 576.802 833.565 520.223 804.828 476.142C776.092 432.06 764.613 409.402 788.139 307.949Z" fill="#ADE2E4"/>
</g>
<defs>
<clipPath id="clip0_250_37">
<rect width="549" height="782" fill="white"/>
</clipPath>
</defs>
</svg>
