<svg width="325" height="393" viewBox="0 0 325 393" fill="none" xmlns="http://www.w3.org/2000/svg">
<g clip-path="url(#clip0_140_37)">
<path d="M124.834 328.087C158.748 323.603 281.643 380.689 316.681 382.5L316.681 102.726C243.072 75.7046 205.019 114.625 180.568 157.714C156.116 200.803 61.4113 210.461 25.7533 241.189C-9.9048 271.917 2.58761 295.086 13.1581 314.69C23.7287 334.295 90.9206 332.571 124.834 328.087Z" fill="#ADE2E4"/>
<path d="M56.9393 284.498C55.5333 312.26 89.9542 349.636 121.556 341.543C153.157 333.45 187.407 297.394 221.657 307.233C255.907 317.071 281.17 340.238 307.452 318.816C309.974 316.759 312.853 314.349 316 311.652V110.217C264.038 128.781 212.44 132.976 153.157 134.345C87.1274 135.882 42.4628 173.474 31.8992 207.784C21.3356 242.094 58.3528 256.744 56.9393 284.498Z" fill="#FFDEA9"/>
<g opacity="0.2">
<g opacity="0.2">
<path opacity="0.2" d="M166.1 300.044L115.141 331.728L64.1834 300.044L115.141 268.359L166.1 300.044Z" fill="black"/>
</g>
</g>
<g clip-path="url(#clip1_140_37)">
<g opacity="0.2">
<g opacity="0.2">
<path opacity="0.2" d="M273.576 240.896L244.195 257.847L214.82 240.896L244.195 223.94L273.576 240.896Z" fill="black"/>
</g>
</g>
<path d="M244.195 207.246C246.44 207.246 248.254 210.238 248.254 213.905V237.869C248.254 241.548 246.458 241.698 244.195 241.698C241.956 241.698 240.143 241.548 240.143 237.869V213.905C240.143 210.226 241.956 207.246 244.195 207.246Z" fill="url(#paint0_linear_140_37)"/>
<path d="M267.32 219.841L244.195 232.167L221.076 219.841L244.195 182.87L267.32 219.841Z" fill="#084F07"/>
<path d="M263.782 207.515L244.194 218.824L224.613 207.515L244.194 173.608L263.782 207.515Z" fill="#0D8409"/>
<path d="M261.291 194.525L244.194 202.16L227.104 194.525L244.194 171.609L261.291 194.525Z" fill="#109B0D"/>
<path d="M244.195 171.609V202.16L261.292 194.525L244.195 171.609Z" fill="#0D8409"/>
<path d="M244.195 218.824V202.16L257.257 196.213L263.782 207.515L244.195 218.824Z" fill="#0B6809"/>
<path d="M244.195 232.167V218.824L260.718 209.286L267.32 219.841L244.195 232.167Z" fill="#053304"/>
<path d="M180.075 245.15C186.393 245.15 191.514 241.764 191.514 237.587C191.514 233.411 186.393 230.025 180.075 230.025C173.757 230.025 168.635 233.411 168.635 237.587C168.635 241.764 173.757 245.15 180.075 245.15Z" fill="#7A7A7A"/>
<path d="M178.494 238.533H181.655C183.166 238.533 184.391 237.309 184.391 235.798V154.616C184.391 153.106 183.166 151.882 181.655 151.882H178.494C176.983 151.882 175.758 153.106 175.758 154.616V235.798C175.758 237.309 176.983 238.533 178.494 238.533Z" fill="url(#paint1_linear_140_37)"/>
<path d="M266.368 218.225V108.629L102.367 13.9841V123.575L266.368 218.225Z" fill="#1CB590"/>
<path d="M266.367 108.629L274.999 103.65V213.241L266.367 218.225V108.629Z" fill="#4C4C4C"/>
<path d="M102.367 13.9841L110.999 9L275 103.65L266.368 108.629L102.367 13.9841Z" fill="#7A7A7A"/>
<g opacity="0.2">
<g opacity="0.2">
<path opacity="0.2" d="M102.367 197.356L110.999 192.371L275 287.022L266.368 292.006L102.367 197.356Z" fill="black"/>
</g>
</g>
<path d="M240.477 78.7418V73.7577L214.58 88.7041V93.6882" stroke="#0C0C0C" stroke-miterlimit="10" stroke-linecap="round"/>
<path d="M162.787 33.9087V28.9246L136.896 43.8709V48.8551" stroke="#0C0C0C" stroke-miterlimit="10" stroke-linecap="round"/>
<path d="M200.807 55.8735V50.8954L174.916 65.8358V70.8199" stroke="#0C0C0C" stroke-miterlimit="10" stroke-linecap="round"/>
<g opacity="0.2">
<g opacity="0.2">
<path opacity="0.2" d="M135.322 241.201L101.158 260.917L67 241.201L101.158 221.486L135.322 241.201Z" fill="black"/>
</g>
</g>
<path d="M101.158 202.076C103.769 202.076 105.876 205.541 105.876 209.819V237.683C105.876 241.961 103.769 242.135 101.158 242.135C98.5544 242.135 96.4473 241.961 96.4473 237.683V209.819C96.4473 205.541 98.5544 202.076 101.158 202.076Z" fill="url(#paint2_linear_140_37)"/>
<path d="M128.048 216.724L101.158 231.054L74.2734 216.724L101.158 173.733L128.048 216.724Z" fill="#084F07"/>
<path d="M123.936 202.393L101.159 215.533L78.3867 202.393L101.159 162.963L123.936 202.393Z" fill="#0D8409"/>
<path d="M121.038 187.286L101.158 196.165L81.2832 187.286L101.158 160.642L121.038 187.286Z" fill="#109B0D"/>
<path d="M101.158 160.642V196.165L121.039 187.286L101.158 160.642Z" fill="#0D8409"/>
<path d="M101.158 215.533V196.165L116.345 189.248L123.936 202.393L101.158 215.533Z" fill="#0B6809"/>
<path d="M101.158 231.054V215.533L120.374 204.446L128.049 216.724L101.158 231.054Z" fill="#053304"/>
</g>
</g>
<defs>
<linearGradient id="paint0_linear_140_37" x1="248.254" y1="224.472" x2="240.143" y2="224.472" gradientUnits="userSpaceOnUse">
<stop stop-color="#CE4912"/>
<stop offset="0.61" stop-color="#EF6524"/>
<stop offset="1" stop-color="#FF722C"/>
</linearGradient>
<linearGradient id="paint1_linear_140_37" x1="175.758" y1="195.207" x2="184.391" y2="195.207" gradientUnits="userSpaceOnUse">
<stop stop-color="#CCCCCC"/>
<stop offset="0.43" stop-color="#666666"/>
</linearGradient>
<linearGradient id="paint2_linear_140_37" x1="14162.2" y1="14469.7" x2="14310.7" y2="14469.7" gradientUnits="userSpaceOnUse">
<stop stop-color="#CE4912"/>
<stop offset="0.61" stop-color="#EF6524"/>
<stop offset="1" stop-color="#FF722C"/>
</linearGradient>
<clipPath id="clip0_140_37">
<rect width="325" height="393" fill="white"/>
</clipPath>
<clipPath id="clip1_140_37">
<rect width="208" height="283" fill="white" transform="translate(67 9)"/>
</clipPath>
</defs>
</svg>
