<svg width="51" height="51" viewBox="0 0 51 51" fill="none" xmlns="http://www.w3.org/2000/svg">
<path fill-rule="evenodd" clip-rule="evenodd" d="M37.185 30.5618C36.5487 30.2452 33.4291 28.7194 32.8483 28.5069C32.2675 28.2965 31.8448 28.1924 31.4199 28.8257C30.9971 29.4547 29.7821 30.8784 29.4127 31.2992C29.0412 31.722 28.6718 31.773 28.0377 31.4585C27.4035 31.1398 25.3579 30.4747 22.9345 28.3242C21.0491 26.6497 19.7743 24.582 19.4049 23.9488C19.0355 23.3177 19.3644 22.9755 19.6825 22.661C19.9686 22.3784 20.3167 21.9237 20.6348 21.5561C20.953 21.1863 21.0576 20.9228 21.269 20.4999C21.4825 20.0792 21.3757 19.7116 21.2156 19.3949C21.0576 19.0783 19.7893 15.9694 19.2597 14.7051C18.7452 13.4747 18.222 13.6426 17.8334 13.6213C17.4619 13.6043 17.0391 13.6001 16.6163 13.6001C16.1936 13.6001 15.506 13.7573 14.9252 14.3906C14.3423 15.0217 12.7046 16.5496 12.7046 19.6584C12.7046 22.7652 14.9765 25.7678 15.2946 26.1907C15.6128 26.6114 19.7679 32.9907 26.133 35.7255C27.649 36.3758 28.8298 36.7646 29.7501 37.0536C31.2704 37.536 32.654 37.468 33.7473 37.3044C34.9643 37.1238 37.501 35.7765 38.0305 34.3018C38.5579 32.827 38.5579 31.5627 38.3999 31.2992C38.2419 31.0357 37.8191 30.8784 37.1828 30.5618H37.185ZM25.6078 46.2931H25.5992C21.8187 46.2938 18.1075 45.2824 14.8548 43.3649L14.0861 42.9101L6.09607 44.9969L8.22916 37.2449L7.72738 36.4501C5.6138 33.1019 4.49528 29.2268 4.50106 25.2727C4.50533 13.6914 13.9729 4.26921 25.6163 4.26921C31.2533 4.26921 36.5529 6.45795 40.5373 10.4274C42.5025 12.3752 44.0601 14.6914 45.1201 17.2421C46.18 19.7928 46.7212 22.5273 46.7123 25.2875C46.7081 36.8688 37.2405 46.2931 25.6078 46.2931V46.2931ZM43.5693 7.41207C41.2167 5.05529 38.4175 3.1866 35.3339 1.91428C32.2503 0.641972 28.9437 -0.00866201 25.6056 8.70771e-05C11.6114 8.70771e-05 0.217793 11.3369 0.213523 25.2705C0.207038 29.7049 1.37589 34.0625 3.60213 37.9036L0 51L13.4605 47.4853C17.184 49.5043 21.3567 50.5622 25.5971 50.5623H25.6078C39.602 50.5623 50.9956 39.2254 50.9999 25.2897C51.0102 21.9689 50.3588 18.679 49.0834 15.6104C47.8079 12.5417 45.9338 9.75525 43.5693 7.41207" fill="#474747"/>
</svg>
